<svg id="visual" viewBox="0 0 900 780" width="900" height="780" xmlns="http://www.w3.org/2000/svg" xmlns:xlink="http://www.w3.org/1999/xlink" version="1.1"><rect x="0" y="0" width="900" height="780" fill="#000125"></rect><path d="M0 248L25 245C50 242 100 236 150 253.8C200 271.7 250 313.3 300 315.7C350 318 400 281 450 262.5C500 244 550 244 600 232.7C650 221.3 700 198.7 750 185.2C800 171.7 850 167.3 875 165.2L900 163L900 781L875 781C850 781 800 781 750 781C700 781 650 781 600 781C550 781 500 781 450 781C400 781 350 781 300 781C250 781 200 781 150 781C100 781 50 781 25 781L0 781Z" fill="#0bd9d9"></path><path d="M0 349L25 335.2C50 321.3 100 293.7 150 301.2C200 308.7 250 351.3 300 353.8C350 356.3 400 318.7 450 294C500 269.3 550 257.7 600 275C650 292.3 700 338.7 750 336C800 333.3 850 281.7 875 255.8L900 230L900 781L875 781C850 781 800 781 750 781C700 781 650 781 600 781C550 781 500 781 450 781C400 781 350 781 300 781C250 781 200 781 150 781C100 781 50 781 25 781L0 781Z" fill="#00c6e4"></path><path d="M0 284L25 296.7C50 309.3 100 334.7 150 336.5C200 338.3 250 316.7 300 318C350 319.3 400 343.7 450 357C500 370.3 550 372.7 600 364.3C650 356 700 337 750 333.2C800 329.3 850 340.7 875 346.3L900 352L900 781L875 781C850 781 800 781 750 781C700 781 650 781 600 781C550 781 500 781 450 781C400 781 350 781 300 781C250 781 200 781 150 781C100 781 50 781 25 781L0 781Z" fill="#00b1e9"></path><path d="M0 420L25 420.7C50 421.3 100 422.7 150 434.7C200 446.7 250 469.3 300 472.8C350 476.3 400 460.7 450 446.7C500 432.7 550 420.3 600 417.7C650 415 700 422 750 436.7C800 451.3 850 473.7 875 484.8L900 496L900 781L875 781C850 781 800 781 750 781C700 781 650 781 600 781C550 781 500 781 450 781C400 781 350 781 300 781C250 781 200 781 150 781C100 781 50 781 25 781L0 781Z" fill="#009ae6"></path><path d="M0 505L25 512.5C50 520 100 535 150 522.7C200 510.3 250 470.7 300 464.3C350 458 400 485 450 506.5C500 528 550 544 600 532C650 520 700 480 750 457.2C800 434.3 850 428.7 875 425.8L900 423L900 781L875 781C850 781 800 781 750 781C700 781 650 781 600 781C550 781 500 781 450 781C400 781 350 781 300 781C250 781 200 781 150 781C100 781 50 781 25 781L0 781Z" fill="#0080db"></path><path d="M0 548L25 545.5C50 543 100 538 150 546.2C200 554.3 250 575.7 300 579C350 582.3 400 567.7 450 566.8C500 566 550 579 600 570.5C650 562 700 532 750 517.3C800 502.7 850 503.3 875 503.7L900 504L900 781L875 781C850 781 800 781 750 781C700 781 650 781 600 781C550 781 500 781 450 781C400 781 350 781 300 781C250 781 200 781 150 781C100 781 50 781 25 781L0 781Z" fill="#0066ce"></path><path d="M0 675L25 664.5C50 654 100 633 150 631.8C200 630.7 250 649.3 300 659.3C350 669.3 400 670.7 450 655C500 639.3 550 606.7 600 595C650 583.3 700 592.7 750 595.7C800 598.7 850 595.3 875 593.7L900 592L900 781L875 781C850 781 800 781 750 781C700 781 650 781 600 781C550 781 500 781 450 781C400 781 350 781 300 781C250 781 200 781 150 781C100 781 50 781 25 781L0 781Z" fill="#0b4abc"></path><path d="M0 712L25 715C50 718 100 724 150 720.8C200 717.7 250 705.3 300 703.3C350 701.3 400 709.7 450 705.7C500 701.7 550 685.3 600 686.3C650 687.3 700 705.7 750 713.7C800 721.7 850 719.3 875 718.2L900 717L900 781L875 781C850 781 800 781 750 781C700 781 650 781 600 781C550 781 500 781 450 781C400 781 350 781 300 781C250 781 200 781 150 781C100 781 50 781 25 781L0 781Z" fill="#2e29a6"></path></svg>